PathFileType	4	(X/Y/Z)	C:/Users/opensim2020/Desktop/walking_exp_matlab/subject01_walking09_straight_04.trc																																																																																																																															
DataRate	CameraRate	NumFrames	NumMarkers	Units	OrigDataRate	OrigDataStartFrame	OrigNumFrames																																																																																																																											
100	100	7	43	mm	100	4142	292																																																																																																																											
Frame#	Time	LFHD			RFHD			LBHD			RBHD			C7			T10			CLAV			STRN			RBAK			LSHO			LUPA			LELB			LFRM			LWRA			LWRB			LFIN			RSHO			RUPA			RELB			RFRM			RWRA			RWRB			RFIN			LASI			RASI			LPSI			RPSI			LTHI			LKNE			LTIB			LANK			LHEE			LTOE			RTHI			RKNE			RTIB			RANK			RHEE			RTOE			*39			*40			*41			*42		
		X1	Y1	Z1	X2	Y2	Z2	X3	Y3	Z3	X4	Y4	Z4	X5	Y5	Z5	X6	Y6	Z6	X7	Y7	Z7	X8	Y8	Z8	X9	Y9	Z9	X10	Y10	Z10	X11	Y11	Z11	X12	Y12	Z12	X13	Y13	Z13	X14	Y14	Z14	X15	Y15	Z15	X16	Y16	Z16	X17	Y17	Z17	X18	Y18	Z18	X19	Y19	Z19	X20	Y20	Z20	X21	Y21	Z21	X22	Y22	Z22	X23	Y23	Z23	X24	Y24	Z24	X25	Y25	Z25	X26	Y26	Z26	X27	Y27	Z27	X28	Y28	Z28	X29	Y29	Z29	X30	Y30	Z30	X31	Y31	Z31	X32	Y32	Z32	X33	Y33	Z33	X34	Y34	Z34	X35	Y35	Z35	X36	Y36	Z36	X37	Y37	Z37	X38	Y38	Z38	X39	Y39	Z39	X40	Y40	Z40	X41	Y41	Z41	X42	Y42	Z42	X43	Y43	Z43
																																																																																																																																		
256	2.55	564.50415	1655.68555	-1481.66345	580.36072	1658.06323	-1368.49744	442.44318	1631.90356	-1472.46631	455.82898	1634.15613	-1352.0293	375.75656	1433.50806	-1424.47498	339.48087	1137.72888	-1407.74915	517.51404	1362.04211	-1430.35474	557.51184	1207.42395	-1437.71716	324.67691	1238.61023	-1337.08582	446.26233	1392.68298	-1587.73438	407.10941	1208.15894	-1668.54822	394.84885	1058.43103	-1668.42419	429.87735	950.83502	-1694.67395	506.22263	833.98981	-1676.52576	450.72021	830.3017	-1701.2605	499.23181	761.07513	-1713.33899	464.39734	1393.62598	-1276.86804	423.53827	1193.30786	-1166.78735	433.85889	1067.60229	-1161.83411	487.06885	957.54962	-1136.79639	588.50024	860.72449	-1166.42334	551.00714	853.05219	-1123.13855	603.30078	784.0697	-1129.33984	505.1571	934.58069	-1528.46326	518.55103	928.96356	-1310.91248	323.18781	943.02625	-1467.44958	332.60641	944.99768	-1322.89014	550.59656	620.65436	-1610.33203	581.03809	489.49622	-1598.72888	536.06781	307.96716	-1606.83289	526.15106	86.89584	-1562.03748	497.51315	52.00842	-1499.12915	664.05475	56.0365	-1599.48303	449.76941	594.2879	-1270.73853	444.29395	436.87314	-1303.74475	379.33682	271.85425	-1299.61523	333.82956	72.55489	-1358.40479	280.34039	37.63024	-1406.09351	472.96765	33.22124	-1367.96155	573.77991	1692.99512	-1390.94897	-1973.14282	1023.54828	3101.91333	-2012.4563	1021.97351	3140.65283	NaN	NaN	NaN
257	2.56	571.88391	1654.54443	-1482.3468	587.60468	1656.96948	-1369.15088	449.758	1631.44006	-1473.31458	463.19351	1633.79297	-1352.40515	382.10461	1433.02783	-1425.15063	345.59265	1137.24719	-1408.30115	523.65381	1361.37695	-1430.8905	563.5816	1206.75256	-1438.08179	330.7399	1238.20667	-1337.56482	452.43085	1392.10596	-1588.3457	412.75488	1207.48889	-1668.87427	400.2821	1057.90173	-1668.51831	434.38232	950.08105	-1694.78662	509.67905	832.54608	-1676.86609	454.09036	829.35803	-1701.49878	501.78094	759.68597	-1713.69751	470.52631	1393.29883	-1277.64783	429.95041	1193.07764	-1167.06836	440.5011	1067.39795	-1161.9978	494.3674	957.61871	-1136.94238	596.54602	861.61847	-1166.57715	558.68146	853.35962	-1123.47754	611.7052	784.87048	-1129.63989	511.50568	934.0816	-1528.62842	524.40564	928.44525	-1311.05786	329.45071	942.55499	-1467.97437	338.57959	944.51282	-1323.43604	556.39581	619.94702	-1610.98169	587.56647	489.00354	-1598.88293	548.83405	306.50867	-1608.22559	546.92731	84.80907	-1564.73083	519.05139	48.77496	-1501.86475	686.33258	58.22656	-1600.82776	453.5228	594.1203	-1270.83179	446.7616	436.48019	-1303.72217	380.7923	272.02298	-1299.59241	334.19366	72.83245	-1358.25244	280.40506	38.05437	-1406.05542	472.80222	33.19529	-1368.03723	581.40997	1691.99109	-1391.62195	-1973.10107	1023.84644	3101.97021	-2012.47363	1021.94189	3140.69019	NaN	NaN	NaN
258	2.57	579.27271	1653.33289	-1483.12231	594.89679	1655.84241	-1369.88208	457.02689	1630.94763	-1474.17725	470.14487	1633.34485	-1353.6759	388.46841	1432.47668	-1425.90063	351.78198	1136.69128	-1408.86877	530.0451	1360.83716	-1431.55847	569.89862	1206.25476	-1438.56531	336.83731	1237.76306	-1338.20471	458.65042	1391.4718	-1589.047	418.51257	1206.77441	-1669.25867	405.75305	1057.32141	-1668.61304	438.98651	949.29016	-1694.98462	513.37805	831.07855	-1677.27283	457.63623	828.39319	-1701.76648	504.68188	758.32117	-1714.07849	476.44385	1392.78857	-1278.25793	436.2226	1192.79492	-1167.43933	447.0874	1067.11414	-1162.16748	501.61353	957.60706	-1137.151	604.21747	862.09125	-1166.91516	566.59589	853.92719	-1123.7782	619.80481	785.42993	-1129.90161	518.05988	933.63031	-1528.93042	530.29913	927.90466	-1311.2998	335.74905	942.06604	-1468.61377	344.57208	944.1571	-1324.1178	561.68787	618.97351	-1611.35376	594.04822	488.53525	-1599.05444	561.34778	305.20923	-1609.58765	567.20062	83.18848	-1567.52002	539.69409	46.17259	-1505.02258	707.71582	60.29499	-1602.21216	457.26596	593.75336	-1270.92834	449.26639	436.18616	-1303.69727	382.20737	272.0842	-1299.56824	334.4657	73.14438	-1358.15796	280.46042	38.62528	-1406.12488	472.79614	33.21288	-1368.06091	588.92889	1690.90271	-1392.41724	-1972.97974	1024.03638	3102.05737	-2012.57764	1022.10815	3140.63672	NaN	NaN	NaN
259	2.58	586.56824	1652.19946	-1483.9718	602.1228	1654.7428	-1370.75403	464.23471	1630.37817	-1475.07837	477.24133	1632.81091	-1354.57678	394.88004	1431.92163	-1426.72107	357.99072	1136.06885	-1409.57141	536.51813	1360.40479	-1432.38354	576.14954	1205.56946	-1439.06189	342.93555	1237.26477	-1338.95325	465.03159	1390.77734	-1589.79321	424.38104	1205.98792	-1669.70129	411.28046	1056.66785	-1668.83032	443.59387	948.46515	-1695.27258	517.24585	829.70477	-1677.75806	461.41867	827.45148	-1702.08679	507.88541	756.88025	-1714.34741	482.71335	1392.46802	-1279.01331	442.48267	1192.3363	-1167.89856	453.68896	1066.74097	-1162.44299	508.67773	957.45514	-1137.45813	611.75208	862.47095	-1167.32581	574.39807	854.11597	-1124.10254	627.8714	785.91937	-1130.29407	524.70496	933.10724	-1529.22974	536.18842	927.31433	-1311.54346	342.13141	941.46411	-1469.31921	350.53528	943.76141	-1324.84497	566.92438	617.88232	-1611.65051	600.48389	487.91702	-1599.14697	573.5368	304.10959	-1610.95581	586.91168	81.93858	-1570.14795	559.84241	44.24211	-1508.06738	728.71301	62.96362	-1603.22156	461.05576	593.67432	-1271.08154	451.82523	435.91016	-1303.66406	383.76093	272.24115	-1299.5697	334.62814	73.4061	-1358.02771	280.40033	38.87097	-1406.01538	472.94662	33.27199	-1367.99158	596.29352	1689.71106	-1393.29114	-1973.12463	1023.53558	3102.05542	-2012.53577	1022.17261	3140.65894	NaN	NaN	NaN
260	2.59	593.72968	1651.11121	-1484.90222	609.27081	1653.65564	-1371.65601	471.36136	1629.71692	-1476.0636	484.29575	1632.25354	-1355.53491	401.33728	1431.30164	-1427.63489	364.25497	1135.44202	-1410.36658	542.74835	1359.56006	-1432.98303	582.50848	1204.86902	-1439.59778	349.0686	1236.72827	-1339.80762	471.45395	1390.08154	-1590.6687	430.40643	1205.2251	-1670.31213	416.99292	1056.03125	-1669.15942	448.45926	947.6579	-1695.67261	521.29315	828.31519	-1678.17981	465.42807	826.48871	-1702.45288	511.37424	755.55048	-1714.75916	488.82349	1391.90503	-1279.70483	448.59976	1191.84094	-1168.4668	460.25967	1066.2356	-1162.81079	515.74469	957.23584	-1137.77893	619.24237	862.63605	-1167.80591	581.95923	854.17871	-1124.46387	635.6618	786.23444	-1130.71582	531.43335	932.41461	-1529.54065	542.19788	926.66638	-1311.76624	348.57782	940.81091	-1470.11426	356.42215	943.33868	-1325.72827	572.88287	617.19067	-1611.99011	606.89099	487.33228	-1599.31311	585.4696	303.13403	-1612.26514	606.04321	81.06407	-1572.66418	579.36646	42.30572	-1511.06714	749.03473	65.8594	-1604.08765	464.85565	593.26776	-1271.21948	454.45593	435.45798	-1303.72766	385.17133	272.24277	-1299.42175	334.81693	73.71977	-1357.974	280.58539	39.64374	-1405.98572	472.99377	33.21747	-1367.96802	603.64935	1688.62146	-1394.22961	-1973.00073	1023.71997	3102.04883	-2012.64136	1022.17017	3140.72559	NaN	NaN	NaN
261	2.6	600.8244	1650.00903	-1485.85632	616.29321	1652.59229	-1372.6167	478.37662	1628.97217	-1477.10559	491.28595	1631.53662	-1356.60132	407.84375	1430.78247	-1428.70422	370.62274	1134.76025	-1411.25134	549.18011	1358.83679	-1433.79504	588.96234	1204.1438	-1440.19788	355.30756	1236.11755	-1340.65186	478.00775	1389.34119	-1591.578	436.56058	1204.4082	-1671.00647	422.63611	1055.32214	-1669.60754	453.50555	946.78998	-1696.10339	525.53046	826.9621	-1678.69971	469.61694	825.5274	-1702.90527	515.10425	754.20862	-1715.17761	495.13049	1391.12549	-1280.4834	454.58688	1191.30737	-1169.17383	466.79691	1065.69458	-1163.23474	522.74579	956.95721	-1138.20776	626.32916	862.66162	-1168.38147	589.4079	854.16571	-1124.86841	643.35803	786.2951	-1131.15491	538.24548	931.62866	-1529.91553	548.2193	925.94427	-1312.00488	355.11548	940.10022	-1470.96924	362.61218	942.75323	-1326.44019	578.92584	616.1618	-1612.50549	613.38153	486.67807	-1599.5509	597.05798	302.24689	-1613.58545	624.56781	80.25522	-1575.04382	598.39868	40.84503	-1513.7356	768.36865	68.84334	-1604.88623	468.75565	593.08588	-1271.41858	457.50906	435.07916	-1303.7345	387.04813	272.42737	-1299.44653	335.27109	74.23097	-1357.90808	280.77472	40.22726	-1405.93335	473.10983	33.23015	-1367.94751	610.95343	1687.66858	-1395.24548	-1973.18201	1023.37848	3101.90674	-2012.50696	1021.95239	3140.74707	NaN	NaN	NaN
262	2.61	607.85242	1648.94873	-1486.89905	623.22443	1651.64612	-1373.66028	485.36111	1628.19116	-1478.18469	498.19385	1630.80615	-1357.70947	414.3685	1430.10217	-1429.74841	377.03378	1134.01038	-1412.24561	555.65143	1358.04138	-1434.59241	595.40125	1203.4386	-1440.82458	361.45596	1235.53467	-1341.71802	484.70651	1388.55811	-1592.52576	442.89407	1203.61853	-1671.84009	428.46112	1054.59753	-1670.19238	458.63565	945.92377	-1696.698	530.01624	825.63269	-1679.23279	474.00818	824.49506	-1703.27966	519.05182	752.91138	-1715.65735	501.3085	1390.71301	-1281.35583	460.67429	1190.59949	-1170.00439	473.27628	1065.08459	-1163.85486	529.68036	956.51105	-1138.72253	633.74542	862.62262	-1168.8667	596.59259	853.99316	-1125.33948	650.95758	786.47394	-1131.69409	545.05804	930.8291	-1530.28662	554.33105	925.31012	-1312.27563	361.68433	939.38794	-1471.95654	368.66876	942.35077	-1327.58167	585.1189	615.17285	-1613.03455	619.94702	485.97592	-1599.8219	608.36157	301.43039	-1614.88892	642.26941	79.88303	-1577.42993	616.03198	40.02139	-1516.55969	786.6944	71.89735	-1605.50574	472.81219	592.54956	-1271.68506	460.67761	434.63852	-1303.85376	389.27859	272.56506	-1299.55286	335.5914	74.63261	-1357.84656	280.92142	40.96298	-1405.94678	473.30762	33.41611	-1367.74219	617.83118	1686.59985	-1396.29883	-1973.12634	1023.44751	3101.89404	-2012.47058	1021.98071	3140.66016	NaN	NaN	NaN
